<svg width="800" height="800" viewBox="0 0 800 800" fill="none" xmlns="http://www.w3.org/2000/svg">
<path fill-rule="evenodd" clip-rule="evenodd" d="M400 800C620.914 800 800 620.914 800 400C800 179.086 620.914 0 400 0C179.086 0 0 179.086 0 400C0 620.914 179.086 800 400 800ZM524 400C524 491.097 474.282 570.581 400.5 612.799C326.718 570.581 277 491.097 277 400C277 308.903 326.718 229.419 400.5 187.201C474.282 229.419 524 308.903 524 400ZM522 155C477.787 155 436.309 166.711 400.5 187.201C364.691 166.711 323.213 155 279 155C143.69 155 34 264.69 34 400C34 535.31 143.69 645 279 645C323.213 645 364.691 633.289 400.5 612.799C436.309 633.289 477.787 645 522 645C657.31 645 767 535.31 767 400C767 264.69 657.31 155 522 155Z" fill="#D9D9D9"/>
</svg>
